<mxfile host="app.diagrams.net" modified="2024-06-25T01:37:15.610Z" agent="Mozilla/5.0 (Windows NT 10.0; Win64; x64) AppleWebKit/537.36 (KHTML, like Gecko) Chrome/126.0.0.0 Safari/537.36 Edg/126.0.0.0" etag="_XU8aomyzP0afHEbbcpm" version="24.6.2" type="onedrive">
  <diagram name="ページ1" id="01OaDnXm-NfQ5adSMz5R">
    <mxGraphModel grid="1" page="0" gridSize="10" guides="1" tooltips="1" connect="1" arrows="1" fold="1" pageScale="1" pageWidth="827" pageHeight="1169" math="0" shadow="0">
      <root>
        <mxCell id="0" />
        <mxCell id="1" parent="0" />
        <mxCell id="nwmonLKzxSIqUd97bWFV-7" style="edgeStyle=none;curved=1;rounded=0;orthogonalLoop=1;jettySize=auto;html=1;exitX=0.5;exitY=1;exitDx=0;exitDy=0;entryX=0.5;entryY=0;entryDx=0;entryDy=0;fontSize=12;startSize=8;endSize=8;" edge="1" parent="1" source="nwmonLKzxSIqUd97bWFV-1" target="nwmonLKzxSIqUd97bWFV-6">
          <mxGeometry relative="1" as="geometry" />
        </mxCell>
        <mxCell id="nwmonLKzxSIqUd97bWFV-1" value="関数outputlist(players)&lt;div&gt;開始&lt;/div&gt;" style="rounded=0;whiteSpace=wrap;html=1;" vertex="1" parent="1">
          <mxGeometry y="-160" width="120" height="60" as="geometry" />
        </mxCell>
        <mxCell id="nwmonLKzxSIqUd97bWFV-14" style="edgeStyle=none;curved=1;rounded=0;orthogonalLoop=1;jettySize=auto;html=1;exitX=0.5;exitY=1;exitDx=0;exitDy=0;entryX=0.5;entryY=0;entryDx=0;entryDy=0;fontSize=12;startSize=8;endSize=8;" edge="1" parent="1" source="nwmonLKzxSIqUd97bWFV-3" target="nwmonLKzxSIqUd97bWFV-13">
          <mxGeometry relative="1" as="geometry" />
        </mxCell>
        <mxCell id="nwmonLKzxSIqUd97bWFV-3" value="print(&quot;number,name,&lt;div&gt;profile&quot;)&lt;/div&gt;" style="rounded=1;whiteSpace=wrap;html=1;" vertex="1" parent="1">
          <mxGeometry y="20" width="120" height="60" as="geometry" />
        </mxCell>
        <mxCell id="nwmonLKzxSIqUd97bWFV-8" style="edgeStyle=none;curved=1;rounded=0;orthogonalLoop=1;jettySize=auto;html=1;exitX=0.5;exitY=1;exitDx=0;exitDy=0;fontSize=12;startSize=8;endSize=8;" edge="1" parent="1" source="nwmonLKzxSIqUd97bWFV-6" target="nwmonLKzxSIqUd97bWFV-3">
          <mxGeometry relative="1" as="geometry" />
        </mxCell>
        <mxCell id="nwmonLKzxSIqUd97bWFV-6" value="for&lt;div&gt;player in players&lt;/div&gt;" style="rhombus;whiteSpace=wrap;html=1;" vertex="1" parent="1">
          <mxGeometry y="-80" width="120" height="80" as="geometry" />
        </mxCell>
        <mxCell id="nwmonLKzxSIqUd97bWFV-10" value="" style="endArrow=none;html=1;rounded=0;fontSize=12;startSize=8;endSize=8;curved=1;exitX=0;exitY=0.5;exitDx=0;exitDy=0;" edge="1" parent="1" source="nwmonLKzxSIqUd97bWFV-3">
          <mxGeometry width="50" height="50" relative="1" as="geometry">
            <mxPoint x="10" y="80" as="sourcePoint" />
            <mxPoint x="-30" y="50" as="targetPoint" />
          </mxGeometry>
        </mxCell>
        <mxCell id="nwmonLKzxSIqUd97bWFV-11" value="" style="endArrow=none;html=1;rounded=0;fontSize=12;startSize=8;endSize=8;curved=1;" edge="1" parent="1">
          <mxGeometry width="50" height="50" relative="1" as="geometry">
            <mxPoint x="-30" y="50" as="sourcePoint" />
            <mxPoint x="-30" y="-40" as="targetPoint" />
          </mxGeometry>
        </mxCell>
        <mxCell id="nwmonLKzxSIqUd97bWFV-12" value="" style="endArrow=classic;html=1;rounded=0;fontSize=12;startSize=8;endSize=8;curved=1;" edge="1" parent="1" target="nwmonLKzxSIqUd97bWFV-6">
          <mxGeometry width="50" height="50" relative="1" as="geometry">
            <mxPoint x="-30" y="-40" as="sourcePoint" />
            <mxPoint x="50" y="20" as="targetPoint" />
          </mxGeometry>
        </mxCell>
        <mxCell id="nwmonLKzxSIqUd97bWFV-13" value="終了" style="rounded=0;whiteSpace=wrap;html=1;" vertex="1" parent="1">
          <mxGeometry y="100" width="120" height="60" as="geometry" />
        </mxCell>
      </root>
    </mxGraphModel>
  </diagram>
</mxfile>
